<svg width="102" height="28" viewBox="0 0 102 28" fill="none" xmlns="http://www.w3.org/2000/svg">
<g filter="url(#filter0_di_4191_422487)">
<rect x="2.57422" y="4.37891" width="6" height="6" rx="3" transform="rotate(-29.3253 2.57422 4.37891)" fill="#00DD88"/>
</g>
<g filter="url(#filter1_di_4191_422487)">
<rect x="25.7314" y="1.44043" width="6" height="20" rx="3" transform="rotate(33.978 25.7314 1.44043)" fill="#F9E600"/>
</g>
<g filter="url(#filter2_di_4191_422487)">
<rect x="15.9199" y="1.44043" width="6" height="20" rx="3" transform="rotate(33.978 15.9199 1.44043)" fill="#FF1B48"/>
</g>
<g filter="url(#filter3_d_4191_422487)">
<path d="M35.1885 15.1872C35.0877 15.2993 34.8972 15.4309 34.6171 15.5822C34.337 15.7334 34.1074 15.8455 33.9281 15.9183H28.7686L28.7854 14.9099H32.6508C32.7797 14.9099 32.8637 14.8903 32.9029 14.8511C32.9477 14.8063 32.9701 14.7251 32.9701 14.6074C32.9701 14.3777 32.9253 14.12 32.8357 13.8343C32.7517 13.543 32.606 13.2937 32.3987 13.0865C32.1971 12.8736 31.9226 12.7671 31.5752 12.7671C30.987 12.7671 30.5921 13.0304 30.3904 13.557C30.1943 14.078 30.0963 14.7895 30.0963 15.6914C30.0963 16.5317 30.2644 17.2152 30.6005 17.7417C30.9422 18.2627 31.4352 18.5232 32.0794 18.5232C32.3147 18.5232 32.5444 18.5036 32.7685 18.4644C32.9925 18.4196 33.253 18.3272 33.5499 18.1871C33.8469 18.0471 34.2166 17.8342 34.6592 17.5485C34.732 17.5877 34.8244 17.6857 34.9365 17.8426C35.0485 17.9994 35.1157 18.1003 35.1381 18.1451C34.6115 18.6605 34.1494 19.0554 33.7516 19.3299C33.3539 19.6044 32.9645 19.7893 32.5836 19.8845C32.2083 19.9854 31.7853 20.0358 31.3147 20.0358C30.6593 20.0358 30.0599 19.8677 29.5165 19.5316C28.9787 19.1955 28.5473 18.7305 28.2224 18.1367C27.9031 17.5373 27.7434 16.8426 27.7434 16.0527C27.7434 14.557 28.3064 13.389 29.4325 12.5487C29.7462 12.319 30.1187 12.1229 30.5501 11.9605C30.9814 11.798 31.4296 11.7168 31.8945 11.7168C32.6284 11.7168 33.239 11.8736 33.7264 12.1873C34.2138 12.4954 34.5779 12.9128 34.8188 13.4394C35.0653 13.9604 35.1885 14.543 35.1885 15.1872ZM45.5327 18.7417C45.191 18.9714 44.8296 19.1843 44.4487 19.3803C44.0678 19.5764 43.7288 19.7333 43.4319 19.8509C43.135 19.9742 42.9334 20.0358 42.8269 20.0358C42.5188 20.0358 42.2947 19.7837 42.1547 19.2795C42.0202 18.7697 41.953 18.0639 41.953 17.1619V9.41433C41.953 8.99978 41.9334 8.69446 41.8942 8.49839C41.8606 8.30232 41.7653 8.17067 41.6085 8.10345C41.4516 8.03623 41.1883 7.99141 40.8186 7.969V7.30516C41.4852 7.24354 42.0875 7.15951 42.6252 7.05307C43.1686 6.94663 43.586 6.84859 43.8773 6.75896L44.2218 7.09508V17.1451C44.2218 17.5373 44.2358 17.8062 44.2638 17.9518C44.2975 18.0975 44.3479 18.1871 44.4151 18.2207C44.4823 18.2543 44.5664 18.2655 44.6672 18.2543C44.768 18.2431 44.9641 18.1731 45.2554 18.0443L45.5327 18.7417ZM42.5748 18.1031C42.0875 18.5961 41.6757 18.9826 41.3396 19.2627C41.0035 19.5428 40.6841 19.7417 40.3816 19.8593C40.0847 19.977 39.743 20.0358 39.3565 20.0358C38.8299 20.0358 38.3257 19.8789 37.8439 19.5652C37.3621 19.2459 36.9672 18.7893 36.6591 18.1955C36.351 17.5961 36.1969 16.8818 36.1969 16.0527C36.1969 15.2685 36.3706 14.5486 36.7179 13.8932C37.0708 13.2321 37.5582 12.7055 38.18 12.3134C38.8019 11.9156 39.5161 11.7168 40.3228 11.7168C40.6589 11.7168 40.9979 11.7728 41.3396 11.8848C41.6813 11.9913 42.0706 12.2434 42.5076 12.6411C42.5076 12.9772 42.4684 13.2629 42.39 13.4982C42.3171 13.7279 42.1911 13.8988 42.0118 14.0108C41.7989 13.6579 41.5441 13.3834 41.2471 13.1873C40.9502 12.9912 40.6113 12.8932 40.2304 12.8932C39.7262 12.8932 39.306 13.0977 38.9699 13.5066C38.6338 13.9156 38.4657 14.5934 38.4657 15.5402C38.4657 16.4029 38.6534 17.0751 39.0287 17.5569C39.4097 18.0331 39.8298 18.2711 40.2892 18.2711C40.6029 18.2711 40.897 18.2011 41.1715 18.0611C41.4516 17.921 41.7877 17.6633 42.1799 17.288C42.2303 17.3104 42.2835 17.3832 42.3395 17.5065C42.3956 17.6297 42.446 17.753 42.4908 17.8762C42.5412 17.9994 42.5692 18.0751 42.5748 18.1031ZM51.1207 19.7837V19.0862C51.5241 18.9798 51.807 18.8874 51.9694 18.8089C52.1319 18.7249 52.2131 18.6465 52.2131 18.5737V14.9687C52.2131 14.3693 52.1543 13.9576 52.0367 13.7335C51.919 13.5094 51.7033 13.3974 51.3896 13.3974C51.1487 13.3974 50.877 13.445 50.5745 13.5402C50.2776 13.6299 49.8575 13.8371 49.3141 14.162V18.5737C49.3141 18.7641 49.6782 18.935 50.4065 19.0862V19.7837H45.9529V19.0862C46.6811 18.8958 47.0453 18.7249 47.0453 18.5737V14.0612C47.0453 13.7699 47.0284 13.5542 46.9948 13.4142C46.9668 13.2741 46.8772 13.1761 46.7259 13.1201C46.5747 13.0641 46.317 13.0164 45.9529 12.9772V12.305C46.5411 12.2434 47.0537 12.1705 47.4906 12.0865C47.9332 11.9969 48.3729 11.8736 48.8099 11.7168L49.188 12.0949L49.2805 13.0108C49.9807 12.5123 50.6025 12.1733 51.1459 11.9941C51.6949 11.8092 52.1879 11.7168 52.6249 11.7168C52.9498 11.7168 53.2523 11.7896 53.5324 11.9352C53.8125 12.0753 54.0394 12.3106 54.2131 12.6411C54.3923 12.9716 54.482 13.417 54.482 13.9772V18.5737C54.482 18.6465 54.552 18.7221 54.692 18.8005C54.8377 18.879 55.1318 18.9742 55.5743 19.0862V19.7837H51.1207ZM63.6917 15.1872C63.5909 15.2993 63.4004 15.4309 63.1203 15.5822C62.8402 15.7334 62.6105 15.8455 62.4312 15.9183H57.2718L57.2886 14.9099H61.154C61.2828 14.9099 61.3669 14.8903 61.4061 14.8511C61.4509 14.8063 61.4733 14.7251 61.4733 14.6074C61.4733 14.3777 61.4285 14.12 61.3388 13.8343C61.2548 13.543 61.1092 13.2937 60.9019 13.0865C60.7002 12.8736 60.4257 12.7671 60.0784 12.7671C59.4902 12.7671 59.0952 13.0304 58.8936 13.557C58.6975 14.078 58.5994 14.7895 58.5994 15.6914C58.5994 16.5317 58.7675 17.2152 59.1036 17.7417C59.4454 18.2627 59.9383 18.5232 60.5826 18.5232C60.8179 18.5232 61.0475 18.5036 61.2716 18.4644C61.4957 18.4196 61.7562 18.3272 62.0531 18.1871C62.35 18.0471 62.7197 17.8342 63.1623 17.5485C63.2351 17.5877 63.3276 17.6857 63.4396 17.8426C63.5516 17.9994 63.6189 18.1003 63.6413 18.1451C63.1147 18.6605 62.6525 19.0554 62.2548 19.3299C61.857 19.6044 61.4677 19.7893 61.0867 19.8845C60.7114 19.9854 60.2885 20.0358 59.8179 20.0358C59.1625 20.0358 58.563 19.8677 58.0196 19.5316C57.4818 19.1955 57.0505 18.7305 56.7256 18.1367C56.4062 17.5373 56.2466 16.8426 56.2466 16.0527C56.2466 14.557 56.8096 13.389 57.9356 12.5487C58.2493 12.319 58.6219 12.1229 59.0532 11.9605C59.4846 11.798 59.9327 11.7168 60.3977 11.7168C61.1316 11.7168 61.7422 11.8736 62.2296 12.1873C62.7169 12.4954 63.0811 12.9128 63.322 13.4394C63.5685 13.9604 63.6917 14.543 63.6917 15.1872ZM70.9939 17.4056C70.9939 17.9994 70.8651 18.4728 70.6074 18.8257C70.3553 19.1787 70.0388 19.442 69.6579 19.6156C69.2769 19.7893 68.8904 19.9013 68.4982 19.9518C68.1117 20.0078 67.784 20.0358 67.5151 20.0358C67.1229 20.0358 66.6832 19.9854 66.1958 19.8845C65.714 19.7893 65.2855 19.6352 64.9101 19.4224C64.8653 19.3944 64.8317 19.2291 64.8093 18.9266C64.7869 18.6241 64.7869 18.2739 64.8093 17.8762C64.8373 17.4785 64.8905 17.1255 64.969 16.8174L65.7504 16.9098C65.9017 17.5485 66.1622 18.0471 66.5319 18.4056C66.9017 18.7641 67.3134 18.9434 67.7672 18.9434C68.5178 18.9434 68.8932 18.6717 68.8932 18.1283C68.8932 17.8258 68.7979 17.5625 68.6075 17.3384C68.417 17.1143 68.1677 16.9098 67.8596 16.725C67.5571 16.5401 67.235 16.358 66.8933 16.1788C66.5851 16.0163 66.277 15.8343 65.9689 15.6326C65.6608 15.4253 65.4031 15.1872 65.1958 14.9183C64.9942 14.6494 64.8933 14.3385 64.8933 13.9856C64.8933 13.5206 65.0446 13.1201 65.3471 12.7839C65.6552 12.4422 66.0502 12.1789 66.5319 11.9941C67.0193 11.8092 67.5291 11.7168 68.0613 11.7168C68.5823 11.7168 69.0837 11.7756 69.5654 11.8932C70.0472 12.0109 70.4225 12.1677 70.6914 12.3638C70.725 12.3918 70.7335 12.4898 70.7166 12.6579C70.6998 12.826 70.6634 13.0248 70.6074 13.2545C70.557 13.4786 70.4926 13.6971 70.4141 13.91C70.3413 14.1172 70.2657 14.2741 70.1873 14.3805L69.5234 14.3133C69.4282 13.7867 69.2517 13.3778 68.994 13.0865C68.7363 12.7896 68.4086 12.6411 68.0109 12.6411C67.6859 12.6411 67.4339 12.7111 67.2546 12.8512C67.0809 12.9856 66.9941 13.1677 66.9941 13.3974C66.9941 13.7391 67.151 14.022 67.4647 14.2461C67.7784 14.4646 68.2686 14.7447 68.9352 15.0864C69.2601 15.2488 69.5794 15.4309 69.8931 15.6326C70.2125 15.8287 70.4758 16.0695 70.683 16.3552C70.8903 16.6353 70.9939 16.9855 70.9939 17.4056ZM81.4305 18.7417C81.0888 18.9714 80.7275 19.1843 80.3465 19.3803C79.9656 19.5764 79.6267 19.7333 79.3298 19.8509C79.0329 19.9742 78.8312 20.0358 78.7248 20.0358C78.4166 20.0358 78.1926 19.7837 78.0525 19.2795C77.9181 18.7697 77.8508 18.0639 77.8508 17.1619V9.41433C77.8508 8.99978 77.8312 8.69446 77.792 8.49839C77.7584 8.30232 77.6632 8.17067 77.5063 8.10345C77.3495 8.03623 77.0862 7.99141 76.7164 7.969V7.30516C77.3831 7.24354 77.9853 7.15951 78.5231 7.05307C79.0665 6.94663 79.4838 6.84859 79.7751 6.75896L80.1197 7.09508V17.1451C80.1197 17.5373 80.1337 17.8062 80.1617 17.9518C80.1953 18.0975 80.2457 18.1871 80.3129 18.2207C80.3802 18.2543 80.4642 18.2655 80.565 18.2543C80.6659 18.2431 80.8619 18.1731 81.1532 18.0443L81.4305 18.7417ZM78.4727 18.1031C77.9853 18.5961 77.5735 18.9826 77.2374 19.2627C76.9013 19.5428 76.582 19.7417 76.2795 19.8593C75.9826 19.977 75.6408 20.0358 75.2543 20.0358C74.7277 20.0358 74.2235 19.8789 73.7417 19.5652C73.26 19.2459 72.865 18.7893 72.5569 18.1955C72.2488 17.5961 72.0947 16.8818 72.0947 16.0527C72.0947 15.2685 72.2684 14.5486 72.6157 13.8932C72.9687 13.2321 73.456 12.7055 74.0779 12.3134C74.6997 11.9156 75.414 11.7168 76.2206 11.7168C76.5568 11.7168 76.8957 11.7728 77.2374 11.8848C77.5791 11.9913 77.9685 12.2434 78.4054 12.6411C78.4054 12.9772 78.3662 13.2629 78.2878 13.4982C78.215 13.7279 78.0889 13.8988 77.9097 14.0108C77.6968 13.6579 77.4419 13.3834 77.145 13.1873C76.8481 12.9912 76.5092 12.8932 76.1282 12.8932C75.624 12.8932 75.2039 13.0977 74.8678 13.5066C74.5316 13.9156 74.3636 14.5934 74.3636 15.5402C74.3636 16.4029 74.5512 17.0751 74.9266 17.5569C75.3075 18.0331 75.7277 18.2711 76.187 18.2711C76.5007 18.2711 76.7949 18.2011 77.0694 18.0611C77.3495 17.921 77.6856 17.6633 78.0777 17.288C78.1281 17.3104 78.1814 17.3832 78.2374 17.5065C78.2934 17.6297 78.3438 17.753 78.3886 17.8762C78.4391 17.9994 78.4671 18.0751 78.4727 18.1031ZM90.2621 18.7585C89.9484 18.977 89.6067 19.1843 89.237 19.3803C88.8728 19.5708 88.5367 19.7277 88.2286 19.8509C87.9205 19.9742 87.6908 20.0358 87.5396 20.0358C87.2987 20.0358 87.0998 19.8901 86.9429 19.5988C86.7861 19.3019 86.7077 18.9042 86.7077 18.4056V14.0528C86.7077 13.7167 86.6376 13.4394 86.4976 13.2209C86.3575 13.0024 86.097 12.8932 85.7161 12.8932C85.4808 12.8932 85.2539 12.9856 85.0354 13.1705C84.8226 13.3554 84.7329 13.6159 84.7665 13.952C84.7722 14.0024 84.6657 14.0724 84.4472 14.162C84.2288 14.2517 83.9655 14.3385 83.6573 14.4225C83.3548 14.5066 83.0747 14.5766 82.817 14.6326C82.5593 14.683 82.3969 14.6998 82.3297 14.683L82.128 14.1873C82.3129 13.7167 82.6322 13.2965 83.0859 12.9268C83.5453 12.5515 84.0831 12.2574 84.6993 12.0445C85.3212 11.826 85.9654 11.7168 86.632 11.7168C87.4555 11.7168 88.0521 11.9212 88.4219 12.3302C88.7916 12.7335 88.9765 13.2237 88.9765 13.8007V17.6157C88.9765 18.0527 89.0885 18.2711 89.3126 18.2711C89.391 18.2711 89.4779 18.2571 89.5731 18.2291C89.6683 18.1955 89.828 18.1339 90.0521 18.0443L90.2621 18.7585ZM86.7917 15.8511C86.1755 15.9519 85.7329 16.0499 85.464 16.1452C85.1951 16.2348 84.9906 16.3496 84.8506 16.4897C84.7049 16.6353 84.5873 16.7866 84.4977 16.9435C84.408 17.1003 84.3632 17.2936 84.3632 17.5233C84.3632 17.8818 84.45 18.1255 84.6237 18.2543C84.7974 18.3776 84.957 18.4392 85.1027 18.4392C85.2819 18.4392 85.4976 18.3888 85.7497 18.2879C86.0018 18.1871 86.3491 17.9406 86.7917 17.5485L86.8589 18.5905C86.3323 19.1563 85.8085 19.54 85.2875 19.7417C84.7665 19.9377 84.3156 20.0358 83.9346 20.0358C83.6097 20.0358 83.296 19.9602 82.9935 19.8089C82.6966 19.6632 82.4529 19.442 82.2624 19.1451C82.072 18.8482 81.9767 18.484 81.9767 18.0527C81.9767 17.6885 82.044 17.3776 82.1784 17.1199C82.3129 16.8566 82.4837 16.6213 82.691 16.4141C82.8759 16.2292 83.1055 16.0555 83.38 15.8931C83.6545 15.725 84.0579 15.5654 84.5901 15.4141C85.1223 15.2572 85.8561 15.1088 86.7917 14.9687V15.8511ZM99.0265 12.6663C98.6904 12.7447 98.4663 12.8204 98.3543 12.8932C98.2478 12.9604 98.1638 13.0753 98.1022 13.2377L95.2956 20.3887C94.8138 21.6212 94.2564 22.5147 93.6234 23.0693C92.9959 23.6239 92.2985 23.9012 91.531 23.9012C91.2453 23.9012 90.9652 23.8648 90.6907 23.7919C90.4162 23.7191 90.1893 23.6323 90.0101 23.5315C89.8252 23.4362 89.7328 23.355 89.7328 23.2878C89.7328 23.2317 89.7832 23.1253 89.884 22.9684C89.9848 22.8172 90.1109 22.6491 90.2621 22.4643C90.4078 22.285 90.5535 22.1169 90.6991 21.9601C90.8448 21.8088 90.9624 21.7052 91.052 21.6492C91.3321 21.8396 91.615 21.9573 91.9007 22.0021C92.192 22.0525 92.4413 22.0413 92.6486 21.9685C92.8615 21.8957 93.0744 21.7612 93.2872 21.5651C93.5001 21.3747 93.7074 21.0385 93.9091 20.5568L94.1528 19.977L91.3125 13.2377C91.2005 12.9744 90.8896 12.7839 90.3798 12.6663V11.9689H94.3796V12.6663C93.9875 12.7167 93.755 12.7811 93.6822 12.8596C93.6094 12.9324 93.6094 13.0584 93.6822 13.2377L95.304 17.0779L96.8501 13.2377C96.9174 13.0697 96.9258 12.9464 96.8753 12.868C96.8249 12.7896 96.6345 12.7223 96.3039 12.6663V11.9689H99.0265V12.6663Z" fill="#0F0F0F"/>
</g>
<defs>
<filter id="filter0_di_4191_422487" x="3.5582" y="2.42441" width="8.20098" height="8.20146" filterUnits="userSpaceOnUse" color-interpolation-filters="sRGB">
<feFlood flood-opacity="0" result="BackgroundImageFix"/>
<feColorMatrix in="SourceAlpha" type="matrix" values="0 0 0 0 0 0 0 0 0 0 0 0 0 0 0 0 0 0 127 0" result="hardAlpha"/>
<feOffset dx="1" dy="1"/>
<feGaussianBlur stdDeviation="0.55"/>
<feComposite in2="hardAlpha" operator="out"/>
<feColorMatrix type="matrix" values="0 0 0 0 0 0 0 0 0 0 0 0 0 0 0 0 0 0 0.25 0"/>
<feBlend mode="normal" in2="BackgroundImageFix" result="effect1_dropShadow_4191_422487"/>
<feBlend mode="normal" in="SourceGraphic" in2="effect1_dropShadow_4191_422487" result="shape"/>
<feColorMatrix in="SourceAlpha" type="matrix" values="0 0 0 0 0 0 0 0 0 0 0 0 0 0 0 0 0 0 127 0" result="hardAlpha"/>
<feOffset dy="1"/>
<feGaussianBlur stdDeviation="2"/>
<feComposite in2="hardAlpha" operator="arithmetic" k2="-1" k3="1"/>
<feColorMatrix type="matrix" values="0 0 0 0 0 0 0 0 0 0 0 0 0 0 0 0 0 0 0.25 0"/>
<feBlend mode="normal" in2="shape" result="effect2_innerShadow_4191_422487"/>
</filter>
<filter id="filter1_di_4191_422487" x="15.6178" y="2.50449" width="16.0252" height="19.8104" filterUnits="userSpaceOnUse" color-interpolation-filters="sRGB">
<feFlood flood-opacity="0" result="BackgroundImageFix"/>
<feColorMatrix in="SourceAlpha" type="matrix" values="0 0 0 0 0 0 0 0 0 0 0 0 0 0 0 0 0 0 127 0" result="hardAlpha"/>
<feOffset dx="1" dy="1"/>
<feGaussianBlur stdDeviation="0.55"/>
<feComposite in2="hardAlpha" operator="out"/>
<feColorMatrix type="matrix" values="0 0 0 0 0 0 0 0 0 0 0 0 0 0 0 0 0 0 0.25 0"/>
<feBlend mode="normal" in2="BackgroundImageFix" result="effect1_dropShadow_4191_422487"/>
<feBlend mode="normal" in="SourceGraphic" in2="effect1_dropShadow_4191_422487" result="shape"/>
<feColorMatrix in="SourceAlpha" type="matrix" values="0 0 0 0 0 0 0 0 0 0 0 0 0 0 0 0 0 0 127 0" result="hardAlpha"/>
<feOffset dy="1"/>
<feGaussianBlur stdDeviation="2"/>
<feComposite in2="hardAlpha" operator="arithmetic" k2="-1" k3="1"/>
<feColorMatrix type="matrix" values="0 0 0 0 0 0 0 0 0 0 0 0 0 0 0 0 0 0 0.25 0"/>
<feBlend mode="normal" in2="shape" result="effect2_innerShadow_4191_422487"/>
</filter>
<filter id="filter2_di_4191_422487" x="5.80625" y="2.50449" width="16.0252" height="19.8104" filterUnits="userSpaceOnUse" color-interpolation-filters="sRGB">
<feFlood flood-opacity="0" result="BackgroundImageFix"/>
<feColorMatrix in="SourceAlpha" type="matrix" values="0 0 0 0 0 0 0 0 0 0 0 0 0 0 0 0 0 0 127 0" result="hardAlpha"/>
<feOffset dx="1" dy="1"/>
<feGaussianBlur stdDeviation="0.55"/>
<feComposite in2="hardAlpha" operator="out"/>
<feColorMatrix type="matrix" values="0 0 0 0 0 0 0 0 0 0 0 0 0 0 0 0 0 0 0.25 0"/>
<feBlend mode="normal" in2="BackgroundImageFix" result="effect1_dropShadow_4191_422487"/>
<feBlend mode="normal" in="SourceGraphic" in2="effect1_dropShadow_4191_422487" result="shape"/>
<feColorMatrix in="SourceAlpha" type="matrix" values="0 0 0 0 0 0 0 0 0 0 0 0 0 0 0 0 0 0 127 0" result="hardAlpha"/>
<feOffset dy="1"/>
<feGaussianBlur stdDeviation="2"/>
<feComposite in2="hardAlpha" operator="arithmetic" k2="-1" k3="1"/>
<feColorMatrix type="matrix" values="0 0 0 0 0 0 0 0 0 0 0 0 0 0 0 0 0 0 0.25 0"/>
<feBlend mode="normal" in2="shape" result="effect2_innerShadow_4191_422487"/>
</filter>
<filter id="filter3_d_4191_422487" x="27.7432" y="6.75879" width="73.2832" height="19.1426" filterUnits="userSpaceOnUse" color-interpolation-filters="sRGB">
<feFlood flood-opacity="0" result="BackgroundImageFix"/>
<feColorMatrix in="SourceAlpha" type="matrix" values="0 0 0 0 0 0 0 0 0 0 0 0 0 0 0 0 0 0 127 0" result="hardAlpha"/>
<feOffset dx="1" dy="1"/>
<feGaussianBlur stdDeviation="0.5"/>
<feComposite in2="hardAlpha" operator="out"/>
<feColorMatrix type="matrix" values="0 0 0 0 0 0 0 0 0 0 0 0 0 0 0 0 0 0 0.25 0"/>
<feBlend mode="normal" in2="BackgroundImageFix" result="effect1_dropShadow_4191_422487"/>
<feBlend mode="normal" in="SourceGraphic" in2="effect1_dropShadow_4191_422487" result="shape"/>
</filter>
</defs>
</svg>
