<svg width="153" height="152" viewBox="0 0 153 152" fill="none" xmlns="http://www.w3.org/2000/svg">
<g filter="url(#filter0_d_2907_4413)">
<g clip-path="url(#clip0_2907_4413)">
<mask id="path-1-inside-1_2907_4413" fill="white">
<path d="M18.5 44.3404C18.5 35.5039 25.6634 28.3404 34.5 28.3404H104.926C113.762 28.3404 120.926 35.5039 120.926 44.3404V99.9574C120.926 108.794 113.762 115.957 104.926 115.957H34.5C25.6634 115.957 18.5 108.794 18.5 99.9575V44.3404Z"/>
</mask>
<path d="M18.5 51.7872H120.926V101.149C120.926 109.327 114.296 115.957 106.117 115.957H33.3085C25.13 115.957 18.5 109.327 18.5 101.149V51.7872Z" fill="#F6FAFF"/>
<path d="M120.926 51.7872L18.5 51.7872L18.5 43.1489C18.5 34.9704 25.13 28.3404 33.3085 28.3404L106.117 28.3404C114.296 28.3404 120.926 34.9704 120.926 43.1489L120.926 51.7872Z" fill="#BED6FF"/>
<rect x="33.5" y="62" width="15" height="15" rx="4" fill="#BED6FF"/>
<rect x="53.5" y="62" width="15" height="15" rx="4" fill="#BED6FF"/>
<rect x="53.5" y="83" width="15" height="15" rx="4" fill="#BED6FF"/>
<rect x="33.5" y="83" width="15" height="15" rx="4" fill="#BED6FF"/>
</g>
<path d="M34.5 29.3404H104.926V27.3404H34.5V29.3404ZM119.926 44.3404V99.9574H121.926V44.3404H119.926ZM104.926 114.957H34.5V116.957H104.926V114.957ZM19.5 99.9575V44.3404H17.5V99.9575H19.5ZM34.5 114.957C26.2157 114.957 19.5 108.242 19.5 99.9575H17.5C17.5 109.346 25.1112 116.957 34.5 116.957V114.957ZM119.926 99.9574C119.926 108.242 113.21 114.957 104.926 114.957V116.957C114.314 116.957 121.926 109.346 121.926 99.9574H119.926ZM104.926 29.3404C113.21 29.3404 119.926 36.0562 119.926 44.3404H121.926C121.926 34.9516 114.314 27.3404 104.926 27.3404V29.3404ZM34.5 27.3404C25.1112 27.3404 17.5 34.9516 17.5 44.3404H19.5C19.5 36.0562 26.2157 29.3404 34.5 29.3404V27.3404Z" fill="#91BAFE" mask="url(#path-1-inside-1_2907_4413)"/>
</g>
<g clip-path="url(#clip1_2907_4413)">
<path d="M131.33 99.9149C131.33 99.6001 131.324 99.2865 131.313 98.9744C130.818 85.0976 119.412 74 105.415 74C91.4173 74 80.0118 85.0976 79.5168 98.9744C79.5057 99.2865 79.5 99.6001 79.5 99.9149C79.5 114.227 92.812 124.889 105.415 124.889C118.246 124.889 131.33 114.227 131.33 99.9149Z" fill="#3B82F6"/>
<path d="M105.415 123.949C91.4175 123.949 80.014 112.851 79.5188 98.9744C79.5069 99.2877 79.5006 99.6013 79.5 99.9149C79.5 114.227 91.1025 125.83 105.415 125.83C119.727 125.83 131.33 114.227 131.33 99.9149C131.33 99.5999 131.322 99.2868 131.311 98.9745C130.816 112.851 119.412 123.949 105.415 123.949Z" fill="#1752B3"/>
<path d="M127.019 98.9744C126.527 87.4679 117.043 78.2903 105.415 78.2903C93.7871 78.2903 84.3029 87.4679 83.8105 98.9744C83.7971 99.2863 83.8104 120.164 105.415 120.164C127.019 120.164 127.033 99.2863 127.019 98.9744Z" fill="#E4EEF9"/>
<path d="M105.415 119.659C93.7872 119.659 84.3045 110.481 83.8119 98.9744C83.798 99.2877 83.7908 99.6012 83.7903 99.9148C83.7903 111.858 93.472 121.539 105.415 121.539C117.358 121.539 127.039 111.858 127.039 99.9149C127.039 99.5997 127.031 99.2864 127.018 98.9745C126.525 110.481 117.043 119.659 105.415 119.659Z" fill="#D5E0F2"/>
<path d="M113.27 92.3277C112.653 91.7198 111.661 91.7266 111.053 92.3429L107.375 96.0719L107.745 97.8472L109.463 98.4195L113.285 94.5443C113.893 93.9281 113.886 92.9356 113.27 92.3277ZM103.196 96.2146L94.8546 88.7811C94.2082 88.2051 93.2175 88.2622 92.6416 88.9086C92.0657 89.5548 92.1227 90.5457 92.7691 91.1216L101.275 98.7015L103.047 98.1103L103.196 96.2146Z" fill="#405B6C"/>
<path d="M116.513 110.021C116.329 110.022 116.151 109.957 116.01 109.838L106.082 101.499C105.924 101.365 105.826 101.173 105.808 100.967C105.791 100.761 105.856 100.556 105.989 100.397C106.122 100.239 106.313 100.139 106.519 100.121C106.725 100.102 106.931 100.166 107.09 100.298L117.018 108.638C117.141 108.741 117.229 108.88 117.271 109.035C117.312 109.191 117.305 109.355 117.25 109.506C117.195 109.657 117.095 109.788 116.963 109.88C116.831 109.972 116.674 110.021 116.513 110.021Z" fill="#86DCFF"/>
<path d="M101.275 98.7014L102.739 100.006L104.619 99.3671L104.517 97.3912L103.196 96.2146C102.278 96.7666 101.582 97.6511 101.275 98.7014ZM107.375 96.072L106.131 97.3337V99.8104H108.091L109.463 98.4196C109.086 97.3996 108.334 96.5621 107.375 96.072Z" fill="#2D4456"/>
<path d="M107.924 98.9743C107.543 97.9589 106.563 97.2363 105.415 97.2363C104.267 97.2363 103.287 97.9589 102.906 98.9743C102.796 99.2669 102.899 101.653 105.415 101.653C107.931 101.653 108.033 99.2669 107.924 98.9743Z" fill="#3B82F6"/>
<path d="M105.415 100.713C104.267 100.713 103.287 99.9898 102.907 98.9745C102.794 99.2751 102.736 99.5937 102.736 99.9149C102.736 101.394 103.936 102.593 105.415 102.593C106.894 102.593 108.093 101.394 108.093 99.9149C108.093 99.5839 108.033 99.2671 107.923 98.9745C107.542 99.9897 106.563 100.713 105.415 100.713Z" fill="#1752B3"/>
<path d="M106.2 83.4724V81.0402C106.2 80.8319 106.117 80.6322 105.97 80.4849C105.823 80.3376 105.623 80.2549 105.415 80.2549C105.207 80.2549 105.007 80.3376 104.86 80.4849C104.712 80.6322 104.63 80.8319 104.63 81.0402V83.4724C104.63 83.9061 104.981 84.2577 105.415 84.2577C105.849 84.2577 106.2 83.9061 106.2 83.4724ZM104.63 116.357V118.79C104.63 119.223 104.981 119.575 105.415 119.575C105.849 119.575 106.2 119.223 106.2 118.79V116.357C106.2 116.149 106.117 115.949 105.97 115.802C105.823 115.655 105.623 115.572 105.415 115.572C105.207 115.572 105.007 115.655 104.86 115.802C104.712 115.949 104.63 116.149 104.63 116.357ZM124.29 100.7C124.498 100.7 124.698 100.617 124.845 100.47C124.992 100.323 125.075 100.123 125.075 99.9149C125.075 99.7066 124.992 99.5069 124.845 99.3597C124.698 99.2124 124.498 99.1297 124.29 99.1297H121.857C121.649 99.1297 121.449 99.2124 121.302 99.3597C121.155 99.5069 121.072 99.7066 121.072 99.9149C121.072 100.123 121.155 100.323 121.302 100.47C121.449 100.617 121.649 100.7 121.857 100.7H124.29ZM86.5401 99.1297C86.1064 99.1297 85.7549 99.4812 85.7549 99.9149C85.7549 100.349 86.1064 100.7 86.5401 100.7H88.9724C89.1806 100.7 89.3804 100.617 89.5276 100.47C89.6749 100.323 89.7576 100.123 89.7576 99.9149C89.7576 99.7066 89.6749 99.5069 89.5276 99.3597C89.3804 99.2124 89.1806 99.1297 88.9724 99.1297H86.5401Z" fill="#405B6C"/>
</g>
<mask id="path-19-inside-2_2907_4413" fill="white">
<path d="M37.0106 27.1064C37.0106 24.3802 39.2206 22.1702 41.9468 22.1702C44.673 22.1702 46.883 24.3802 46.883 27.1064V36.9787C46.883 39.7049 44.673 41.9149 41.9468 41.9149C39.2206 41.9149 37.0106 39.7049 37.0106 36.9787V27.1064Z"/>
</mask>
<path d="M37.0106 27.1064C37.0106 24.3802 39.2206 22.1702 41.9468 22.1702C44.673 22.1702 46.883 24.3802 46.883 27.1064V36.9787C46.883 39.7049 44.673 41.9149 41.9468 41.9149C39.2206 41.9149 37.0106 39.7049 37.0106 36.9787V27.1064Z" fill="#1C6EF3"/>
<path d="M44.4149 27.1064V36.9787H49.351V27.1064H44.4149ZM39.4787 36.9787V27.1064H34.5425V36.9787H39.4787ZM41.9468 39.4468C40.5837 39.4468 39.4787 38.3418 39.4787 36.9787H34.5425C34.5425 41.068 37.8575 44.383 41.9468 44.383V39.4468ZM44.4149 36.9787C44.4149 38.3418 43.3099 39.4468 41.9468 39.4468V44.383C46.036 44.383 49.351 41.068 49.351 36.9787H44.4149ZM41.9468 24.6383C43.3099 24.6383 44.4149 25.7433 44.4149 27.1064H49.351C49.351 23.0171 46.036 19.7021 41.9468 19.7021V24.6383ZM41.9468 19.7021C37.8575 19.7021 34.5425 23.0171 34.5425 27.1064H39.4787C39.4787 25.7433 40.5837 24.6383 41.9468 24.6383V19.7021Z" fill="white" mask="url(#path-19-inside-2_2907_4413)"/>
<mask id="path-21-inside-3_2907_4413" fill="white">
<path d="M92.5425 27.1064C92.5425 24.3802 94.7525 22.1702 97.4787 22.1702C100.205 22.1702 102.415 24.3802 102.415 27.1064V36.9787C102.415 39.7049 100.205 41.9149 97.4787 41.9149C94.7525 41.9149 92.5425 39.7049 92.5425 36.9787V27.1064Z"/>
</mask>
<path d="M92.5425 27.1064C92.5425 24.3802 94.7525 22.1702 97.4787 22.1702C100.205 22.1702 102.415 24.3802 102.415 27.1064V36.9787C102.415 39.7049 100.205 41.9149 97.4787 41.9149C94.7525 41.9149 92.5425 39.7049 92.5425 36.9787V27.1064Z" fill="#1C6EF3"/>
<path d="M99.9468 27.1064V36.9787H104.883V27.1064H99.9468ZM95.0106 36.9787V27.1064H90.0745V36.9787H95.0106ZM97.4787 39.4468C96.1156 39.4468 95.0106 38.3418 95.0106 36.9787H90.0745C90.0745 41.068 93.3895 44.383 97.4787 44.383V39.4468ZM99.9468 36.9787C99.9468 38.3418 98.8418 39.4468 97.4787 39.4468V44.383C101.568 44.383 104.883 41.068 104.883 36.9787H99.9468ZM97.4787 24.6383C98.8418 24.6383 99.9468 25.7433 99.9468 27.1064H104.883C104.883 23.0171 101.568 19.7021 97.4787 19.7021V24.6383ZM97.4787 19.7021C93.3895 19.7021 90.0745 23.0171 90.0745 27.1064H95.0106C95.0106 25.7433 96.1156 24.6383 97.4787 24.6383V19.7021Z" fill="white" mask="url(#path-21-inside-3_2907_4413)"/>
<defs>
<filter id="filter0_d_2907_4413" x="2.5" y="12.3404" width="134.426" height="119.617" filterUnits="userSpaceOnUse" color-interpolation-filters="sRGB">
<feFlood flood-opacity="0" result="BackgroundImageFix"/>
<feColorMatrix in="SourceAlpha" type="matrix" values="0 0 0 0 0 0 0 0 0 0 0 0 0 0 0 0 0 0 127 0" result="hardAlpha"/>
<feOffset/>
<feGaussianBlur stdDeviation="8"/>
<feComposite in2="hardAlpha" operator="out"/>
<feColorMatrix type="matrix" values="0 0 0 0 0.231373 0 0 0 0 0.509804 0 0 0 0 0.964706 0 0 0 0.25 0"/>
<feBlend mode="normal" in2="BackgroundImageFix" result="effect1_dropShadow_2907_4413"/>
<feBlend mode="normal" in="SourceGraphic" in2="effect1_dropShadow_2907_4413" result="shape"/>
</filter>
<clipPath id="clip0_2907_4413">
<path d="M18.5 44.3404C18.5 35.5039 25.6634 28.3404 34.5 28.3404H104.926C113.762 28.3404 120.926 35.5039 120.926 44.3404V99.9574C120.926 108.794 113.762 115.957 104.926 115.957H34.5C25.6634 115.957 18.5 108.794 18.5 99.9575V44.3404Z" fill="white"/>
</clipPath>
<clipPath id="clip1_2907_4413">
<rect width="51.8298" height="51.8298" fill="white" transform="translate(79.5 74)"/>
</clipPath>
</defs>
</svg>
